<svg width="30" height="29" viewBox="0 0 30 29" fill="none" xmlns="http://www.w3.org/2000/svg">
<path d="M4.25 28.5H0.75C0.551088 28.5 0.360322 28.421 0.21967 28.2803C0.0790177 28.1397 0 27.9489 0 27.75V4.25C0 4.05109 0.0790177 3.86032 0.21967 3.71967C0.360322 3.57902 0.551088 3.5 0.75 3.5H4.25C4.44891 3.5 4.63968 3.57902 4.78033 3.71967C4.92098 3.86032 5 4.05109 5 4.25V27.75C5 27.9489 4.92098 28.1397 4.78033 28.2803C4.63968 28.421 4.44891 28.5 4.25 28.5ZM14 11.5V8.25C14 8.05109 13.921 7.86032 13.7803 7.71967C13.6397 7.57902 13.4489 7.5 13.25 7.5H6.75C6.55109 7.5 6.36032 7.57902 6.21967 7.71967C6.07902 7.86032 6 8.05109 6 8.25V11.5H14ZM6 24.5V27.75C6 27.9489 6.07902 28.1397 6.21967 28.2803C6.36032 28.421 6.55109 28.5 6.75 28.5H13.25C13.4489 28.5 13.6397 28.421 13.7803 28.2803C13.921 28.1397 14 27.9489 14 27.75V24.5H6ZM6 13.5H14V22.5H6V13.5ZM20.25 28.5H15.75C15.5511 28.5 15.3603 28.421 15.2197 28.2803C15.079 28.1397 15 27.9489 15 27.75V1.25C15 1.05109 15.079 0.860322 15.2197 0.71967C15.3603 0.579018 15.5511 0.5 15.75 0.5H20.25C20.4489 0.5 20.6397 0.579018 20.7803 0.71967C20.921 0.860322 21 1.05109 21 1.25V27.75C21 27.9489 20.921 28.1397 20.7803 28.2803C20.6397 28.421 20.4489 28.5 20.25 28.5ZM22.0625 4.79375L23.9375 27.7831C23.9458 27.8839 23.9744 27.982 24.0217 28.0715C24.0689 28.1609 24.1337 28.2399 24.2122 28.3037C24.2908 28.3675 24.3814 28.4147 24.4786 28.4425C24.5759 28.4703 24.6778 28.4782 24.7781 28.4656L29.2881 27.9031C29.4801 27.8791 29.6555 27.7818 29.7774 27.6316C29.8994 27.4813 29.9585 27.2897 29.9425 27.0969L28.0625 4.20062C28.0542 4.10118 28.0262 4.00439 27.98 3.91591C27.9339 3.82744 27.8705 3.74907 27.7937 3.6854C27.7168 3.62172 27.6281 3.57401 27.5326 3.54508C27.4371 3.51614 27.3368 3.50655 27.2375 3.51687L22.7294 3.98625C22.5349 4.00727 22.3562 4.10347 22.2317 4.25433C22.1071 4.40519 22.0464 4.59876 22.0625 4.79375Z" fill="white"/>
</svg>
