<svg width="11" height="11" viewBox="0 0 11 11" fill="none" xmlns="http://www.w3.org/2000/svg">
<path fill-rule="evenodd" clip-rule="evenodd" d="M2.7061 0.292919C2.5175 0.110761 2.2649 0.00996641 2.0027 0.0122448C1.74051 0.0145233 1.48969 0.119693 1.30429 0.305101C1.11888 0.490509 1.01371 0.741322 1.01143 1.00352C1.00915 1.26572 1.10995 1.51832 1.2921 1.70692L4.5851 4.99992L1.2921 8.29292C1.19659 8.38517 1.12041 8.49551 1.068 8.61751C1.01559 8.73952 0.988008 8.87074 0.986854 9.00352C0.9857 9.1363 1.011 9.26798 1.06128 9.39087C1.11156 9.51377 1.18582 9.62542 1.27971 9.71931C1.3736 9.81321 1.48525 9.88746 1.60815 9.93774C1.73105 9.98802 1.86273 10.0133 1.99551 10.0122C2.12829 10.011 2.2595 9.98343 2.38151 9.93102C2.50351 9.87861 2.61386 9.80243 2.7061 9.70692L5.9991 6.41392L9.2921 9.70692C9.48071 9.88908 9.73331 9.98987 9.99551 9.98759C10.2577 9.98532 10.5085 9.88015 10.6939 9.69474C10.8793 9.50933 10.9845 9.25852 10.9868 8.99632C10.9891 8.73412 10.8883 8.48152 10.7061 8.29292L7.4131 4.99992L10.7061 1.70692C10.8883 1.51832 10.9891 1.26572 10.9868 1.00352C10.9845 0.741322 10.8793 0.490509 10.6939 0.305101C10.5085 0.119693 10.2577 0.0145233 9.99551 0.0122448C9.73331 0.00996641 9.48071 0.110761 9.2921 0.292919L5.9991 3.58592L2.7061 0.292919Z" fill="#524D49"/>
</svg>
