<svg width="33" height="33" viewBox="0 0 33 33" fill="none" xmlns="http://www.w3.org/2000/svg">
<path d="M11.3671 20.1851C11.1141 20.1851 10.9436 20.2098 10.8556 20.2346V21.8543C10.9601 21.8791 11.0907 21.8859 11.2708 21.8859C11.9295 21.8859 12.3351 21.5532 12.3351 20.9908C12.3351 20.4876 11.9858 20.1851 11.3671 20.1851ZM16.1617 20.2016C15.8867 20.2016 15.708 20.2263 15.6021 20.2511V23.8398C15.708 23.8646 15.8785 23.8646 16.0325 23.8646C17.1558 23.8728 17.8873 23.2541 17.8873 21.9451C17.8956 20.8038 17.2287 20.2016 16.1617 20.2016Z" fill="white"/>
<path d="M19.25 2.75H8.25C7.52065 2.75 6.82118 3.03973 6.30546 3.55546C5.78973 4.07118 5.5 4.77065 5.5 5.5V27.5C5.5 28.2293 5.78973 28.9288 6.30546 29.4445C6.82118 29.9603 7.52065 30.25 8.25 30.25H24.75C25.4793 30.25 26.1788 29.9603 26.6945 29.4445C27.2103 28.9288 27.5 28.2293 27.5 27.5V11L19.25 2.75ZM13.0598 22.2613C12.6349 22.66 12.0079 22.8388 11.2777 22.8388C11.1362 22.8414 10.9946 22.8331 10.8542 22.814V24.7747H9.625V19.3627C10.1798 19.2802 10.7403 19.2425 11.3011 19.25C12.067 19.25 12.6115 19.3958 12.9786 19.6886C13.3279 19.9664 13.5644 20.4215 13.5644 20.9578C13.563 21.4967 13.3843 21.9519 13.0598 22.2613ZM18.2944 24.1244C17.7169 24.6042 16.8383 24.8325 15.7644 24.8325C15.1209 24.8325 14.6657 24.7913 14.3564 24.75V19.3641C14.9114 19.2834 15.4717 19.2453 16.0325 19.25C17.0734 19.25 17.7499 19.437 18.2779 19.8357C18.8485 20.2592 19.206 20.9344 19.206 21.9038C19.206 22.9529 18.8224 23.6775 18.2944 24.1244ZM23.375 20.3088H21.2685V21.5614H23.2375V22.5706H21.2685V24.7761H20.0228V19.2913H23.375V20.3088ZM19.25 12.375H17.875V5.5L24.75 12.375H19.25Z" fill="white"/>
</svg>
