<svg width="16" height="17" viewBox="0 0 16 17" fill="none" xmlns="http://www.w3.org/2000/svg">
<path d="M8 0.5C6.41775 0.5 4.87103 0.969192 3.55544 1.84824C2.23985 2.72729 1.21447 3.97672 0.608967 5.43853C0.00346627 6.90034 -0.15496 8.50887 0.153721 10.0607C0.462403 11.6126 1.22433 13.038 2.34315 14.1569C3.46197 15.2757 4.88743 16.0376 6.43928 16.3463C7.99113 16.655 9.59966 16.4965 11.0615 15.891C12.5233 15.2855 13.7727 14.2602 14.6518 12.9446C15.5308 11.629 16 10.0822 16 8.5C15.9976 6.37899 15.154 4.34553 13.6542 2.84576C12.1545 1.34598 10.121 0.502364 8 0.5ZM1.11628 8.5C1.11764 7.72928 1.24949 6.96436 1.50624 6.23767C1.96763 9.59395 4.91163 9.87749 5.03814 10.4126C5.10792 11.0152 5.12535 11.6227 5.09023 12.2284C5.14233 13.2628 6.57116 13.2777 7.12186 14.0963C7.31541 14.484 7.39072 14.9201 7.33842 15.3502C5.63618 15.184 4.05656 14.3908 2.9066 13.1248C1.75665 11.8587 1.11853 10.2103 1.11628 8.5ZM9.86791 15.1233C10.3747 13.5359 11.8966 12.9979 12.0514 12.0803C12.1756 11.3443 11.2082 10.964 10.3397 10.8606C9.47126 10.7571 9.60447 9.85963 8.992 9.22335C8.37954 8.58707 7.98065 8.62204 7.12037 8.72995C6.2601 8.83786 5.5241 8.76716 5.28372 8.23804C5.04335 7.70893 5.34996 7.4559 4.7174 6.80028C4.632 6.71845 4.57065 6.61479 4.54001 6.50055C4.50937 6.38632 4.5106 6.26587 4.54358 6.15229C4.57656 6.0387 4.64002 5.93632 4.72708 5.85626C4.81413 5.7762 4.92146 5.72151 5.0374 5.69814C5.48391 5.59023 6.27796 6.36791 6.74307 6.27637C8.14363 5.98763 6.46475 3.24456 8.5693 2.55544C8.95564 2.42348 9.2742 2.14424 9.45563 1.77851C10.6361 2.03625 11.7276 2.601 12.6199 3.41572C12.8796 4.01229 12.9725 4.66818 12.8886 5.31339C12.608 6.18186 11.901 6.80697 12.672 8.22763C13.4765 9.71153 13.9728 9.91321 14.3345 9.50465C14.476 9.34935 14.6529 9.23062 14.8502 9.1586C14.7158 10.5385 14.1685 11.8458 13.2797 12.9099C12.3908 13.974 11.2018 14.7453 9.86791 15.1233Z" fill="#030A0B"/>
</svg>
