<svg width="15" height="16" viewBox="0 0 15 16" fill="none" xmlns="http://www.w3.org/2000/svg">
<g clip-path="url(#clip0_920_5119)">
<path d="M7.50026 15.5C11.6424 15.5 15.0003 12.1421 15.0003 8C15.0003 3.85786 11.6424 0.5 7.50026 0.5C3.35812 0.5 0.000259399 3.85786 0.000259399 8C0.000259399 12.1421 3.35812 15.5 7.50026 15.5Z" fill="#F0F0F0"/>
<path d="M1.5504 3.4339C0.961267 4.20039 0.517039 5.08384 0.258377 6.04358H4.16008L1.5504 3.4339Z" fill="#0052B4"/>
<path d="M14.7417 6.04361C14.483 5.0839 14.0387 4.20045 13.4496 3.43396L10.84 6.04361H14.7417Z" fill="#0052B4"/>
<path d="M0.258377 9.9566C0.517069 10.9163 0.961297 11.7998 1.5504 12.5662L4.15999 9.9566H0.258377Z" fill="#0052B4"/>
<path d="M12.0661 2.05047C11.2996 1.46134 10.4162 1.01711 9.45648 0.758423V4.66009L12.0661 2.05047Z" fill="#0052B4"/>
<path d="M2.93387 13.9497C3.70036 14.5388 4.58381 14.983 5.54352 15.2417V11.3401L2.93387 13.9497Z" fill="#0052B4"/>
<path d="M5.54349 0.758423C4.58378 1.01711 3.70033 1.46134 2.93387 2.05044L5.54349 4.66006V0.758423Z" fill="#0052B4"/>
<path d="M9.45648 15.2417C10.4162 14.983 11.2996 14.5388 12.0661 13.9497L9.45648 11.3401V15.2417Z" fill="#0052B4"/>
<path d="M10.84 9.9566L13.4496 12.5663C14.0387 11.7998 14.483 10.9163 14.7417 9.9566H10.84Z" fill="#0052B4"/>
<path d="M14.9368 7.02175H8.47857H8.47854V0.563486C8.1583 0.521797 7.83181 0.5 7.50026 0.5C7.16865 0.5 6.84222 0.521797 6.52201 0.563486V7.02169V7.02172H0.0637457C0.0220563 7.34196 0.000259399 7.66845 0.000259399 8C0.000259399 8.33161 0.0220563 8.65804 0.0637457 8.97825H6.52195H6.52198V15.4365C6.84222 15.4782 7.16865 15.5 7.50026 15.5C7.83181 15.5 8.1583 15.4782 8.47851 15.4365V8.97831V8.97828H14.9368C14.9785 8.65804 15.0003 8.33161 15.0003 8C15.0003 7.66845 14.9785 7.34196 14.9368 7.02175Z" fill="#D80027"/>
<path d="M9.45653 9.95657L12.8033 13.3033C12.9572 13.1495 13.104 12.9886 13.2441 12.8218L10.3789 9.95654H9.45653V9.95657Z" fill="#D80027"/>
<path d="M5.54349 9.95654H5.54343L2.1967 13.3033C2.35057 13.4572 2.51144 13.604 2.67819 13.7441L5.54349 10.8788V9.95654Z" fill="#D80027"/>
<path d="M5.54349 6.0435V6.04344L2.19673 2.69666C2.04281 2.85052 1.89597 3.01139 1.75587 3.17815L4.6212 6.04347H5.54349V6.0435Z" fill="#D80027"/>
<path d="M9.45653 6.04351L12.8033 2.69669C12.6494 2.54276 12.4886 2.39593 12.3218 2.25586L9.45653 5.12118V6.04351Z" fill="#D80027"/>
</g>
<defs>
<clipPath id="clip0_920_5119">
<rect width="15" height="15" fill="white" transform="translate(0 0.5)"/>
</clipPath>
</defs>
</svg>
