<svg width="24" height="24" viewBox="0 0 24 24" fill="none" xmlns="http://www.w3.org/2000/svg">
<path d="M17.9667 0H6.01427C2.70262 0 0 2.70262 0 6.01427V17.9857C0 21.2784 2.70262 23.981 6.01427 23.981H17.9857C21.2974 23.981 24 21.2783 24 17.9667V6.01427C23.981 2.70262 21.2784 0 17.9667 0ZM7.99366 19.4132H4.5678V9.51626H7.99366V19.4132ZM6.2617 7.99366C5.29104 7.99366 4.51071 7.21332 4.51071 6.24266C4.51071 5.27201 5.29104 4.49167 6.2617 4.49167C7.23236 4.49167 8.01269 5.27201 8.01269 6.24266C7.99366 7.21332 7.21332 7.99366 6.2617 7.99366ZM19.4322 19.4132H16.5583V14.617C16.5583 13.456 16.406 11.9715 14.8263 11.9715C13.2086 11.9715 12.9421 13.2276 12.9421 14.5408V19.4132H10.0872V9.51626H12.7518V10.8485H12.8279C13.2466 10.0872 14.2173 9.49722 15.7399 9.49722C18.8803 9.49722 19.4322 11.3053 19.4322 13.9889V19.4132Z" fill="#001240"/>
</svg>
